<?xml version="1.0" standalone="no"?>
<!DOCTYPE svg PUBLIC "-//W3C//DTD SVG 20010904//EN"
 "http://www.w3.org/TR/2001/REC-SVG-20010904/DTD/svg10.dtd">
<svg version="1.0" xmlns="http://www.w3.org/2000/svg"
 width="300.000000pt" height="300.000000pt" viewBox="0 0 300.000000 300.000000"
 preserveAspectRatio="xMidYMid meet">
<metadata>
Created by potrace 1.14, written by Peter Selinger 2001-2017
</metadata>
<g transform="translate(0.000000,300.000000) scale(0.100000,-0.100000)"
fill="#000000" stroke="none">
<path d="M914 2848 c-3 -12 -13 -28 -21 -36 -8 -8 -12 -21 -9 -28 3 -8 -1 -14
-10 -14 -11 0 -14 -6 -10 -16 3 -8 2 -12 -4 -9 -6 3 -10 -1 -10 -9 0 -9 -9
-25 -20 -36 -12 -12 -18 -25 -15 -30 4 -6 2 -10 -3 -10 -5 0 -17 -18 -27 -40
-10 -22 -24 -45 -31 -51 -8 -6 -12 -15 -9 -19 3 -4 -2 -13 -10 -20 -8 -7 -15
-19 -15 -26 0 -8 -5 -14 -10 -14 -6 0 -9 -6 -8 -12 2 -7 -2 -12 -9 -11 -7 2
-10 -3 -7 -11 3 -8 0 -17 -5 -21 -6 -3 -9 -11 -6 -16 4 -5 2 -9 -4 -9 -6 0
-18 -17 -28 -37 -9 -21 -20 -40 -24 -43 -3 -3 -9 -15 -13 -28 -4 -13 -12 -19
-18 -16 -7 5 -9 1 -5 -9 3 -9 1 -19 -4 -23 -6 -3 -17 -22 -25 -40 -8 -19 -19
-34 -26 -34 -6 0 -8 -3 -5 -6 4 -4 -3 -20 -14 -35 -11 -16 -17 -29 -12 -29 4
0 3 -4 -3 -8 -14 -9 -49 -74 -46 -84 1 -5 -2 -8 -6 -8 -5 0 -19 -20 -31 -45
-12 -25 -26 -43 -30 -41 -4 3 -8 -5 -8 -17 -1 -12 -7 -23 -13 -25 -5 -2 -8 -8
-4 -13 3 -5 0 -9 -7 -9 -7 0 -9 -3 -6 -7 4 -3 1 -13 -7 -22 -8 -9 -15 -19 -15
-23 -1 -5 -1 -9 -2 -10 -5 -16 -4 -48 2 -48 4 0 4 -13 -1 -30 -5 -17 -5 -30 0
-30 5 0 7 -6 4 -13 -8 -21 -10 -97 -3 -97 7 0 5 -38 -4 -46 -3 -4 -3 -14 1
-23 9 -20 9 -42 -1 -58 -5 -7 -4 -13 0 -13 5 0 8 -20 9 -45 0 -25 -5 -45 -11
-45 -7 0 -7 -3 0 -8 6 -4 11 -20 11 -37 0 -16 -5 -33 -11 -37 -7 -5 -7 -8 1
-8 12 0 13 -69 0 -89 -6 -9 -5 -12 2 -7 12 7 11 -51 0 -70 -4 -6 -4 -14 0 -18
12 -12 11 -80 -2 -95 -9 -12 -8 -13 7 -8 12 4 16 3 11 -4 -3 -6 -7 -44 -7 -85
0 -71 14 -111 34 -98 5 3 9 0 9 -5 0 -6 7 -11 15 -11 7 0 19 -8 24 -18 6 -9
11 -13 11 -9 0 5 13 -1 29 -12 16 -12 34 -21 40 -21 6 0 11 -4 11 -9 0 -5 7
-12 16 -15 10 -4 13 -2 9 7 -4 6 0 4 7 -5 8 -9 35 -28 60 -41 26 -14 44 -28
41 -31 -4 -3 3 -6 15 -6 12 0 22 -5 22 -11 0 -5 5 -7 10 -4 6 3 10 2 10 -4 0
-5 10 -13 22 -17 12 -3 28 -13 36 -20 7 -8 17 -12 22 -9 5 3 10 2 12 -2 5 -12
88 -64 88 -56 0 5 4 2 9 -6 5 -8 17 -16 27 -17 9 -2 20 -6 23 -11 8 -11 42
-32 64 -39 9 -4 17 -11 17 -16 0 -5 4 -7 9 -4 5 3 12 -1 15 -10 3 -8 10 -13
15 -10 5 4 15 1 23 -6 7 -7 27 -20 43 -28 17 -8 35 -19 40 -23 15 -12 79 -51
88 -53 4 -1 12 -2 17 -3 6 0 10 -9 10 -18 0 -15 2 -16 10 -3 8 13 10 12 10 -3
0 -9 3 -16 8 -15 14 4 52 -13 52 -23 0 -6 5 -7 10 -4 5 3 10 1 10 -5 0 -6 4
-9 9 -6 5 3 12 -1 15 -10 4 -9 9 -14 13 -11 3 4 12 2 18 -3 14 -11 75 15 75
31 0 6 5 7 10 4 6 -3 10 -1 10 5 0 6 5 8 10 5 18 -11 25 32 20 119 -3 47 -3
86 0 86 10 0 5 395 -5 402 -7 5 -7 8 0 8 6 0 8 28 5 75 -3 41 -3 75 0 75 3 0
5 47 5 105 0 83 3 108 15 115 8 5 11 10 7 10 -5 0 1 14 13 30 12 17 18 30 15
30 -4 0 1 8 10 17 10 9 22 29 27 45 6 15 14 28 19 28 5 0 9 9 9 19 0 10 7 21
15 25 8 3 15 15 15 26 0 11 5 20 12 20 6 0 9 3 5 6 -3 4 7 26 23 49 16 23 26
45 23 49 -4 3 -1 6 5 6 7 0 12 5 12 11 0 6 9 23 20 39 11 15 17 30 13 34 -3 3
-1 6 6 6 7 0 10 4 7 8 -3 5 4 14 14 22 10 8 17 17 14 21 -2 4 3 15 12 23 8 9
12 16 8 16 -4 0 1 10 12 22 13 14 14 19 4 14 -12 -6 -12 -5 1 6 14 12 58 85
97 163 9 17 19 32 22 35 4 3 10 15 14 28 8 24 46 51 46 32 0 -6 5 -8 10 -5 6
3 10 2 10 -3 0 -5 21 -20 48 -33 26 -13 50 -28 54 -34 4 -5 8 -6 8 -2 0 5 7 1
16 -7 8 -9 22 -16 30 -16 8 0 14 -4 14 -10 0 -5 5 -10 11 -10 6 0 23 -9 39
-20 15 -11 30 -17 34 -13 3 3 6 2 6 -4 0 -5 18 -18 40 -28 22 -10 40 -23 40
-28 0 -6 3 -7 7 -4 3 4 12 -1 20 -11 8 -9 11 -11 8 -4 -6 11 -3 11 14 0 12 -7
21 -16 21 -20 0 -5 7 -8 16 -8 8 0 22 -7 30 -15 9 -8 13 -15 9 -15 -3 0 -1 -9
5 -19 7 -14 7 -22 0 -26 -8 -5 -8 -11 0 -20 8 -10 8 -15 0 -20 -8 -5 -8 -10 0
-20 8 -10 8 -15 0 -20 -8 -5 -8 -10 0 -20 8 -10 8 -15 0 -20 -8 -5 -8 -10 0
-20 8 -10 8 -15 0 -20 -8 -5 -8 -10 0 -20 8 -10 8 -15 0 -20 -8 -5 -8 -10 0
-20 8 -10 8 -15 0 -20 -8 -5 -8 -10 0 -20 8 -10 8 -15 0 -20 -8 -5 -8 -10 0
-20 8 -10 8 -15 0 -20 -8 -5 -8 -10 0 -20 8 -10 8 -15 0 -20 -8 -5 -8 -10 0
-20 8 -10 8 -15 0 -20 -8 -5 -8 -10 0 -20 8 -10 8 -15 0 -20 -8 -5 -8 -10 0
-20 8 -10 8 -15 0 -20 -8 -5 -8 -10 0 -20 8 -10 8 -15 0 -20 -8 -5 -8 -10 0
-20 8 -10 8 -15 0 -20 -8 -5 -8 -10 0 -20 8 -10 8 -15 0 -20 -8 -5 -8 -10 0
-20 8 -10 8 -15 0 -20 -8 -5 -8 -10 0 -20 8 -10 8 -15 0 -20 -8 -5 -8 -10 0
-20 8 -10 8 -15 0 -20 -8 -5 -8 -10 0 -20 8 -10 8 -15 0 -20 -8 -5 -8 -10 0
-20 8 -10 8 -15 0 -20 -8 -5 -8 -11 -1 -19 6 -7 8 -16 4 -20 -13 -13 -11 -35
5 -48 10 -8 13 -9 9 -1 -7 11 15 24 37 22 5 0 12 5 17 13 5 7 14 13 21 13 10
0 14 102 16 508 2 446 0 507 -13 507 -8 0 -15 5 -15 11 0 5 -5 7 -10 4 -6 -3
-13 1 -16 9 -3 9 -15 16 -25 16 -10 0 -19 3 -19 8 0 4 -9 13 -21 20 -17 11
-20 11 -14 0 3 -7 -1 -4 -9 6 -9 11 -16 16 -16 10 0 -5 -7 0 -16 11 -8 11 -18
19 -22 19 -10 -2 -36 8 -42 16 -3 3 -31 21 -62 39 -32 18 -60 36 -63 42 -4 5
-15 9 -26 9 -10 0 -19 5 -19 10 0 6 -7 10 -15 10 -8 0 -15 4 -15 9 0 8 -28 19
-47 19 -3 0 -10 7 -15 16 -5 9 -16 16 -23 16 -8 0 -15 5 -15 11 0 5 -4 8 -9 4
-5 -3 -16 1 -24 10 -8 8 -21 16 -28 17 -8 2 -21 10 -29 18 -8 8 -22 16 -30 18
-8 2 -17 8 -18 13 -2 5 -8 7 -13 3 -5 -3 -9 0 -9 7 0 7 -3 10 -6 6 -4 -3 -22
5 -40 20 -19 14 -34 22 -34 19 0 -4 -10 2 -22 13 -11 11 -25 18 -30 15 -4 -3
-8 -1 -8 5 0 5 -10 13 -22 17 -13 4 -25 10 -28 15 -3 4 -12 9 -20 11 -8 2 -23
11 -34 21 -11 9 -26 17 -33 17 -7 0 -13 5 -13 10 0 6 -7 10 -15 10 -8 0 -15 4
-15 9 0 5 -13 12 -29 16 -16 3 -32 13 -35 22 -4 8 -13 13 -20 10 -8 -3 -17 1
-20 9 -3 8 -12 14 -21 14 -8 0 -15 4 -15 8 0 4 -12 13 -27 19 -39 16 -107 56
-115 68 -5 7 -8 7 -8 0 0 -5 -6 -3 -13 5 -7 8 -35 26 -62 40 -28 13 -52 28
-55 32 -3 4 -19 13 -35 20 -17 8 -48 25 -70 38 -22 14 -43 24 -47 22 -5 -1 -8
3 -8 8 0 6 -18 18 -40 27 -22 10 -40 21 -40 26 0 4 -4 5 -10 2 -5 -3 -10 -1
-10 6 0 6 -8 9 -20 6 -11 -3 -18 -1 -14 4 3 5 1 9 -5 9 -5 0 -13 -10 -17 -22z"/>
<path d="M2181 1232 c0 -7 -5 -10 -11 -7 -5 3 -10 1 -10 -4 0 -6 -4 -11 -10
-11 -5 0 -34 -16 -65 -35 -30 -20 -55 -33 -55 -30 0 3 -12 -6 -27 -20 -15 -14
-31 -26 -35 -26 -42 -7 -58 -20 -48 -39 5 -9 7 -20 3 -23 -9 -10 -10 -50 -2
-68 4 -8 4 -21 -1 -29 -5 -9 -5 -19 2 -27 6 -8 7 -13 1 -13 -10 0 -10 -41 0
-57 3 -5 2 -15 -3 -23 -5 -9 -5 -19 2 -27 6 -8 7 -13 1 -13 -10 0 -10 -41 0
-57 3 -5 2 -15 -3 -23 -5 -9 -5 -19 2 -27 6 -8 7 -13 1 -13 -10 0 -10 -41 0
-57 3 -5 2 -15 -3 -23 -5 -9 -5 -19 2 -27 6 -7 6 -13 1 -13 -5 0 -9 -9 -9 -20
0 -11 4 -20 8 -20 4 0 3 -11 -2 -24 -7 -18 -5 -26 6 -30 8 -3 14 -1 14 5 0 6
4 8 9 4 5 -3 17 3 27 12 10 10 20 18 23 17 3 -1 23 10 43 22 21 13 42 24 48
24 5 0 10 5 10 10 0 6 7 10 15 10 8 0 23 8 33 18 10 10 24 16 32 14 7 -3 10 0
6 7 -4 6 -2 11 5 11 8 0 8 4 -1 15 -7 8 -9 15 -4 15 12 0 11 93 -1 102 -7 5
-7 8 0 8 10 0 11 109 1 135 -3 8 -2 15 2 15 11 0 8 234 -3 242 -6 5 -5 8 4 8
10 0 11 3 2 14 -7 8 -8 16 -4 18 5 1 5 19 2 38 -4 19 -7 29 -8 22z"/>
</g>
</svg>
